<svg width="25" height="25" viewBox="0 0 25 25" fill="none" xmlns="http://www.w3.org/2000/svg">
<path d="M8.48704 7.25001C8.02481 7.25001 7.61667 7.52376 7.53148 7.91751C7.42185 8.42876 7.25 9.33876 7.25 10.0625C7.25 10.8319 7.72111 11.5081 8.43148 11.8975C8.63222 12.0081 8.73148 12.1506 8.73148 12.2725V12.5288C8.73148 12.54 8.73074 12.5513 8.72926 12.5625C8.70926 12.725 8.61741 13.4556 8.53074 14.2069C8.44556 14.9475 8.36111 15.7381 8.36111 16C8.36111 16.3315 8.5172 16.6495 8.79503 16.8839C9.07286 17.1183 9.44968 17.25 9.84259 17.25C10.2355 17.25 10.6123 17.1183 10.8902 16.8839C11.168 16.6495 11.3241 16.3315 11.3241 16C11.3241 15.7375 11.2396 14.9475 11.1544 14.2069C11.0911 13.6587 11.0249 13.1108 10.9559 12.5631L10.9537 12.5288V12.2725C10.9537 12.15 11.053 12.0075 11.2537 11.8975C11.6163 11.699 11.9144 11.4271 12.1207 11.1066C12.3271 10.7862 12.4352 10.4272 12.4352 10.0625C12.4352 9.33876 12.2633 8.42876 12.1537 7.91751C12.1125 7.72935 11.9942 7.55939 11.8196 7.43737C11.6449 7.31535 11.4249 7.24903 11.1981 7.25001C10.9463 7.25001 10.7167 7.32939 10.5433 7.46001C10.3453 7.32418 10.0978 7.25003 9.84259 7.25001C9.57667 7.25001 9.33296 7.32876 9.14185 7.46001C8.962 7.32432 8.7283 7.24953 8.48704 7.25001ZM9.47222 8.18751C9.47222 8.10463 9.51124 8.02514 9.5807 7.96654C9.65016 7.90793 9.74436 7.87501 9.84259 7.87501C9.94082 7.87501 10.035 7.90793 10.1045 7.96654C10.1739 8.02514 10.213 8.10463 10.213 8.18751V10.0625C10.213 10.1454 10.252 10.2249 10.3214 10.2835C10.3909 10.3421 10.4851 10.375 10.5833 10.375C10.6816 10.375 10.7758 10.3421 10.8452 10.2835C10.9147 10.2249 10.9537 10.1454 10.9537 10.0625V8.08126C10.9537 8.05417 10.96 8.02735 10.9723 8.00233C10.9846 7.97731 11.0026 7.95457 11.0253 7.93542C11.048 7.91627 11.0749 7.90107 11.1046 7.89071C11.1343 7.88034 11.166 7.87501 11.1981 7.87501C11.3144 7.87501 11.4056 7.94251 11.4248 8.02938C11.5337 8.53751 11.6944 9.39938 11.6944 10.0625C11.6945 10.3232 11.6172 10.5797 11.4697 10.8087C11.3223 11.0377 11.1092 11.232 10.85 11.3738C10.5248 11.5519 10.213 11.865 10.213 12.2725V12.5288C10.213 12.5621 10.2149 12.5954 10.2189 12.6288C10.2396 12.79 10.3307 13.5188 10.4174 14.2675C10.5048 15.0269 10.5833 15.7769 10.5833 16C10.5833 16.1658 10.5053 16.3247 10.3664 16.4419C10.2275 16.5592 10.039 16.625 9.84259 16.625C9.64614 16.625 9.45773 16.5592 9.31881 16.4419C9.17989 16.3247 9.10185 16.1658 9.10185 16C9.10185 15.7769 9.18037 15.0269 9.26778 14.2675C9.35444 13.5188 9.44556 12.79 9.4663 12.6288C9.47025 12.5954 9.47222 12.5621 9.47222 12.5288V12.2725C9.47222 11.865 9.16037 11.5519 8.83519 11.3738C8.57598 11.232 8.36293 11.0377 8.21544 10.8087C8.06795 10.5797 7.99071 10.3232 7.99074 10.0625C7.99074 9.40001 8.15148 8.53751 8.26037 8.02938C8.27052 7.98512 8.29893 7.94532 8.34056 7.91705C8.3822 7.88879 8.43436 7.87389 8.48778 7.87501C8.55248 7.87518 8.61447 7.89698 8.66015 7.93564C8.70583 7.9743 8.73148 8.02667 8.73148 8.08126V10.0625C8.73148 10.1454 8.7705 10.2249 8.83996 10.2835C8.90942 10.3421 9.00362 10.375 9.10185 10.375C9.20008 10.375 9.29429 10.3421 9.36374 10.2835C9.4332 10.2249 9.47222 10.1454 9.47222 10.0625V8.18751ZM13.1759 10.0625C13.1759 9.31659 13.5271 8.60122 14.1522 8.07377C14.7774 7.54633 15.6252 7.25001 16.5093 7.25001C16.6075 7.25001 16.7017 7.28293 16.7712 7.34154C16.8406 7.40014 16.8796 7.47963 16.8796 7.56251V11.9238L16.8944 12.0638C16.9522 12.6253 17.0085 13.187 17.0633 13.7488C17.1552 14.6906 17.25 15.7244 17.25 16C17.25 16.3315 17.0939 16.6495 16.8161 16.8839C16.5383 17.1183 16.1614 17.25 15.7685 17.25C15.3756 17.25 14.9988 17.1183 14.721 16.8839C14.4431 16.6495 14.287 16.3315 14.287 16C14.287 15.725 14.3819 14.6906 14.4737 13.7488C14.5196 13.2731 14.5663 12.8131 14.6011 12.4725L14.6233 12.25H14.287C13.9924 12.25 13.7097 12.1512 13.5014 11.9754C13.293 11.7996 13.1759 11.5611 13.1759 11.3125V10.0625ZM15.3967 11.965L15.3811 12.1181L15.3389 12.5263C15.3041 12.8663 15.2574 13.325 15.2115 13.8C15.1181 14.7606 15.0278 15.7575 15.0278 16C15.0278 16.1658 15.1058 16.3247 15.2447 16.4419C15.3837 16.5592 15.5721 16.625 15.7685 16.625C15.965 16.625 16.1534 16.5592 16.2923 16.4419C16.4312 16.3247 16.5093 16.1658 16.5093 16C16.5093 15.7575 16.4189 14.7606 16.3256 13.8C16.2706 13.2393 16.2141 12.6786 16.1559 12.1181L16.1404 11.9656V11.965L16.1389 11.9375V7.89689C15.5217 7.97204 14.9574 8.23236 14.5492 8.63011C14.1411 9.02785 13.9165 9.53639 13.9167 10.0625V11.3125C13.9167 11.3954 13.9557 11.4749 14.0251 11.5335C14.0946 11.5921 14.1888 11.625 14.287 11.625H15.0278C15.0792 11.625 15.13 11.634 15.177 11.6515C15.224 11.669 15.2662 11.6945 15.3009 11.7265C15.3356 11.7585 15.362 11.7962 15.3785 11.8373C15.395 11.8783 15.4012 11.9218 15.3967 11.965Z" fill="#FF7375"/>
<path d="M18.8797 22.2462C21.2208 20.6953 22.9436 18.3718 23.7477 15.6805C24.5519 12.9893 24.3864 10.1011 23.2802 7.51938C22.174 4.93767 20.1972 2.82619 17.6943 1.553C15.1915 0.27982 12.3214 -0.0743167 9.58432 0.552326M18.8797 22.2462V17.5814M18.8797 22.2462H23.5734M5.58744 2.27563C3.25446 3.8322 1.54064 6.15754 0.744009 8.84728C-0.0526234 11.537 0.118324 14.421 1.22712 16.9977C2.33593 19.5744 4.31244 21.6808 6.81295 22.9507C9.31346 24.2206 12.1798 24.5735 14.9135 23.9482M5.58744 2.27563V6.91908M5.58744 2.27563H0.924404" stroke="white" stroke-width="0.5" stroke-linecap="round" stroke-linejoin="round"/>
</svg>
