<svg width="13" height="14" viewBox="0 0 13 14" fill="none" xmlns="http://www.w3.org/2000/svg">
<path d="M6.90019 1.12407C6.90013 1.02117 6.88276 0.919299 6.84907 0.824264C6.81538 0.729228 6.76603 0.642892 6.70383 0.570183C6.64164 0.497475 6.56782 0.439818 6.48659 0.400506C6.40536 0.361194 6.31831 0.340995 6.23041 0.341063C6.14251 0.341132 6.05548 0.361466 5.9743 0.400906C5.89311 0.440345 5.81936 0.498116 5.75725 0.570923C5.69514 0.643728 5.64588 0.730141 5.6123 0.825229C5.57872 0.920317 5.56146 1.02222 5.56152 1.12511L6.90019 1.12407ZM5.56196 7.54793C5.56196 7.75573 5.63248 7.95503 5.75801 8.10197C5.88353 8.24891 6.05378 8.33146 6.2313 8.33146C6.40882 8.33146 6.57907 8.24891 6.70459 8.10197C6.83012 7.95503 6.90064 7.75573 6.90064 7.54793H5.56196ZM6.90064 7.55759C6.90064 7.34979 6.83012 7.1505 6.70459 7.00356C6.57907 6.85662 6.40882 6.77407 6.2313 6.77407C6.05378 6.77407 5.88353 6.85662 5.75801 7.00356C5.63248 7.1505 5.56196 7.34979 5.56196 7.55759H6.90064ZM5.56196 13.2165C5.56196 13.4243 5.63248 13.6236 5.75801 13.7705C5.88353 13.9175 6.05378 14 6.2313 14C6.40882 14 6.57907 13.9175 6.70459 13.7705C6.83012 13.6236 6.90064 13.4243 6.90064 13.2165H5.56196ZM5.56152 1.12511V1.14496L6.90019 1.14392V1.12407L5.56152 1.12511ZM5.56152 1.14496V1.37715L6.90019 1.37584V1.14392L5.56152 1.14496ZM5.56152 1.37715V1.60907L6.90019 1.60802V1.37584L5.56152 1.37715ZM5.56152 1.60907L5.56174 1.84125L6.90041 1.84021L6.90019 1.60802L5.56152 1.60907ZM5.56174 1.84125L5.56196 2.07344L6.90064 2.07239L6.90041 1.84021L5.56174 1.84125ZM5.56196 2.07344V2.30562L6.90064 2.3051V2.07239L5.56196 2.07344ZM5.56196 2.30562L5.56196 7.54793H6.90064L6.90064 2.3051L5.56196 2.30562ZM5.56196 7.55759V13.2165H6.90064V7.55759H5.56196Z" fill="black"/>
<path d="M6.22268 0C5.98103 3.91006e-05 5.74174 0.055995 5.51849 0.164255C5.29518 0.272552 5.09239 0.43143 4.92149 0.631514L0.196912 6.1621C-0.0644741 6.46809 -0.0644865 6.96408 0.196912 7.27005C0.458314 7.57597 0.882028 7.57603 1.1434 7.27005L5.86797 1.73947C5.91459 1.68489 5.97004 1.64148 6.03095 1.61194C6.09176 1.58246 6.15686 1.56709 6.22268 1.56705C6.28861 1.56705 6.35438 1.58241 6.41529 1.61194C6.4761 1.64147 6.53172 1.68497 6.57827 1.73947L11.3028 7.27005C11.5642 7.57587 11.988 7.57587 12.2493 7.27005C12.5107 6.96411 12.5106 6.46809 12.2493 6.1621L7.52475 0.631514C7.35393 0.431524 7.15093 0.272548 6.92775 0.164255C6.70442 0.0559578 6.46442 0 6.22268 0Z" fill="black"/>
</svg>
